<svg width="428" height="926" viewBox="0 0 428 926" fill="none" xmlns="http://www.w3.org/2000/svg">
<rect width="428" height="926" rx="20" fill="#161616"/>
<path d="M129.375 507.45C128.128 506.487 127.108 505.212 126.315 503.625C125.522 502.038 125.125 500.112 125.125 497.845C125.125 495.862 125.465 493.85 126.145 491.81C126.882 489.713 128.213 487.985 130.14 486.625C132.067 485.208 134.843 484.5 138.47 484.5H140.765L133.2 470.985H129.375L125.125 462.485H139.32L151.645 484.5H161.25V493H156.32L162.185 503.455L155.13 510L145.61 493H138.47C137.733 493 136.883 493.198 135.92 493.595C135.013 494.048 134.192 494.7 133.455 495.55C132.775 496.457 132.435 497.647 132.435 499.12C132.435 501.387 132.973 503.172 134.05 504.475C135.183 505.778 136.572 506.685 138.215 507.195C139.915 507.762 141.643 507.988 143.4 507.875C145.213 507.818 146.8 507.592 148.16 507.195C146.573 508.328 144.618 509.15 142.295 509.66C140.028 510.17 137.733 510.255 135.41 509.915C133.143 509.575 131.132 508.753 129.375 507.45ZM184.803 510.93C183.443 510.93 182.281 510.448 181.318 509.485C180.355 508.522 179.873 507.36 179.873 506C179.873 504.64 180.355 503.478 181.318 502.515C182.281 501.552 183.443 501.07 184.803 501.07C186.163 501.07 187.325 501.552 188.288 502.515C189.251 503.478 189.733 504.64 189.733 506C189.733 507.36 189.251 508.522 188.288 509.485C187.325 510.448 186.163 510.93 184.803 510.93ZM170.098 510.93C168.738 510.93 167.576 510.448 166.613 509.485C165.65 508.522 165.168 507.36 165.168 506C165.168 504.64 165.65 503.478 166.613 502.515C167.576 501.552 168.738 501.07 170.098 501.07C171.458 501.07 172.62 501.552 173.583 502.515C174.546 503.478 175.028 504.64 175.028 506C175.028 507.36 174.546 508.522 173.583 509.485C172.62 510.448 171.458 510.93 170.098 510.93ZM157.657 493V484.5H183.157V469.37L191.657 467.5V484.5H201.857V493H188.597C188.484 493 188.399 493 188.342 493C188.286 493 188.257 493 188.257 493H157.657ZM198.497 493V484.5H208.697V463.42L217.197 461.55V484.5H227.397V493H214.137C214.024 493 213.939 493 213.882 493C213.826 493 213.797 493 213.797 493H198.497ZM232.769 510.93C231.409 510.93 230.247 510.448 229.284 509.485C228.321 508.522 227.839 507.36 227.839 506C227.839 504.64 228.321 503.478 229.284 502.515C230.247 501.552 231.409 501.07 232.769 501.07C234.129 501.07 235.291 501.552 236.254 502.515C237.217 503.478 237.699 504.64 237.699 506C237.699 507.36 237.217 508.522 236.254 509.485C235.291 510.448 234.129 510.93 232.769 510.93ZM223.981 493V484.5H234.181V469.37L242.681 467.5V484.5H251.181V465.12L259.681 463.25V484.5H268.181V460.87L276.681 459V484.5H286.881V493H223.981ZM299.603 456.93C298.243 456.93 297.081 456.448 296.118 455.485C295.154 454.522 294.673 453.36 294.673 452C294.673 450.64 295.154 449.478 296.118 448.515C297.081 447.552 298.243 447.07 299.603 447.07C300.963 447.07 302.124 447.552 303.088 448.515C304.051 449.478 304.533 450.64 304.533 452C304.533 453.36 304.051 454.522 303.088 455.485C302.124 456.448 300.963 456.93 299.603 456.93ZM284.898 456.93C283.538 456.93 282.376 456.448 281.413 455.485C280.449 454.522 279.968 453.36 279.968 452C279.968 450.64 280.449 449.478 281.413 448.515C282.376 447.552 283.538 447.07 284.898 447.07C286.258 447.07 287.419 447.552 288.383 448.515C289.346 449.478 289.828 450.64 289.828 452C289.828 453.36 289.346 454.522 288.383 455.485C287.419 456.448 286.258 456.93 284.898 456.93ZM283.497 493V484.5H293.697V469.37L302.197 467.5V491.045C302.197 491.725 301.914 492.207 301.347 492.49C300.781 492.773 300.214 492.943 299.647 493C299.081 493 298.797 493 298.797 493H283.497Z" fill="#8DA05E"/>
</svg>
